<mxfile modified="2022-05-04T22:49:02.606Z" host="app.diagrams.net" agent="5.0 (Windows NT 10.0; Win64; x64) AppleWebKit/537.36 (KHTML, like Gecko) Chrome/100.0.4896.127 Safari/537.36 Edg/100.0.1185.50" etag="wBRVXRdM8EeMLvavu6aj" compressed="false" version="17.5.0" type="google">
  <diagram id="trNV386MTFWL2nta-I_z" name="Deployment/Deliverables">
    <mxGraphModel grid="1" page="1" gridSize="10" guides="1" tooltips="1" connect="1" arrows="1" fold="1" pageScale="1" pageWidth="827" pageHeight="1169" math="0" shadow="0">
      <root>
        <mxCell id="0" />
        <mxCell id="1" parent="0" />
        <mxCell id="g3XapY0zzhMqb0ZphnkQ-10" value="persisted in" style="edgeStyle=orthogonalEdgeStyle;rounded=0;orthogonalLoop=1;jettySize=auto;html=1;entryX=0.5;entryY=1;entryDx=0;entryDy=0;" edge="1" parent="1" source="g3XapY0zzhMqb0ZphnkQ-1" target="g3XapY0zzhMqb0ZphnkQ-9">
          <mxGeometry relative="1" as="geometry" />
        </mxCell>
        <mxCell id="g3XapY0zzhMqb0ZphnkQ-1" value="Environments&lt;br&gt;as Code" style="rounded=0;whiteSpace=wrap;html=1;" vertex="1" parent="1">
          <mxGeometry x="360" y="200" width="80" height="40" as="geometry" />
        </mxCell>
        <mxCell id="g3XapY0zzhMqb0ZphnkQ-7" value="developed&amp;nbsp;&lt;br&gt;from" style="edgeStyle=orthogonalEdgeStyle;rounded=0;orthogonalLoop=1;jettySize=auto;html=1;entryX=0;entryY=0.5;entryDx=0;entryDy=0;" edge="1" parent="1" source="g3XapY0zzhMqb0ZphnkQ-2" target="g3XapY0zzhMqb0ZphnkQ-1">
          <mxGeometry relative="1" as="geometry" />
        </mxCell>
        <mxCell id="g3XapY0zzhMqb0ZphnkQ-8" value="configured&lt;br&gt;by" style="edgeStyle=orthogonalEdgeStyle;rounded=0;orthogonalLoop=1;jettySize=auto;html=1;entryX=0;entryY=0.5;entryDx=0;entryDy=0;" edge="1" parent="1" source="g3XapY0zzhMqb0ZphnkQ-2" target="g3XapY0zzhMqb0ZphnkQ-4">
          <mxGeometry relative="1" as="geometry" />
        </mxCell>
        <mxCell id="g3XapY0zzhMqb0ZphnkQ-2" value="Environments" style="rounded=0;whiteSpace=wrap;html=1;" vertex="1" parent="1">
          <mxGeometry x="200" y="240" width="80" height="40" as="geometry" />
        </mxCell>
        <mxCell id="g3XapY0zzhMqb0ZphnkQ-5" value="" style="edgeStyle=orthogonalEdgeStyle;rounded=0;orthogonalLoop=1;jettySize=auto;html=1;entryX=1;entryY=0.5;entryDx=0;entryDy=0;" edge="1" parent="1" source="g3XapY0zzhMqb0ZphnkQ-3" target="g3XapY0zzhMqb0ZphnkQ-4">
          <mxGeometry relative="1" as="geometry" />
        </mxCell>
        <mxCell id="g3XapY0zzhMqb0ZphnkQ-6" value="describing" style="edgeStyle=orthogonalEdgeStyle;rounded=0;orthogonalLoop=1;jettySize=auto;html=1;horizontal=0;" edge="1" parent="1" source="g3XapY0zzhMqb0ZphnkQ-3" target="g3XapY0zzhMqb0ZphnkQ-1">
          <mxGeometry x="-0.3333" relative="1" as="geometry">
            <mxPoint as="offset" />
          </mxGeometry>
        </mxCell>
        <mxCell id="g3XapY0zzhMqb0ZphnkQ-14" value="persisted in" style="edgeStyle=orthogonalEdgeStyle;rounded=0;orthogonalLoop=1;jettySize=auto;html=1;entryX=0;entryY=0.5;entryDx=0;entryDy=0;horizontal=0;" edge="1" parent="1" source="g3XapY0zzhMqb0ZphnkQ-3" target="g3XapY0zzhMqb0ZphnkQ-13">
          <mxGeometry relative="1" as="geometry" />
        </mxCell>
        <mxCell id="g3XapY0zzhMqb0ZphnkQ-3" value="Documentation" style="rounded=0;whiteSpace=wrap;html=1;" vertex="1" parent="1">
          <mxGeometry x="480" y="240" width="80" height="40" as="geometry" />
        </mxCell>
        <mxCell id="g3XapY0zzhMqb0ZphnkQ-12" value="persisted in" style="edgeStyle=orthogonalEdgeStyle;rounded=0;orthogonalLoop=1;jettySize=auto;html=1;entryX=0.5;entryY=0;entryDx=0;entryDy=0;" edge="1" parent="1" source="g3XapY0zzhMqb0ZphnkQ-4" target="g3XapY0zzhMqb0ZphnkQ-11">
          <mxGeometry relative="1" as="geometry" />
        </mxCell>
        <mxCell id="g3XapY0zzhMqb0ZphnkQ-27" value="" style="edgeStyle=orthogonalEdgeStyle;rounded=0;orthogonalLoop=1;jettySize=auto;html=1;fontColor=#999999;endArrow=block;endFill=0;" edge="1" parent="1" source="g3XapY0zzhMqb0ZphnkQ-4" target="g3XapY0zzhMqb0ZphnkQ-1">
          <mxGeometry relative="1" as="geometry" />
        </mxCell>
        <mxCell id="g3XapY0zzhMqb0ZphnkQ-4" value="Environment&lt;br&gt;Configuration&lt;br&gt;Settings" style="rounded=0;whiteSpace=wrap;html=1;" vertex="1" parent="1">
          <mxGeometry x="360" y="280" width="80" height="40" as="geometry" />
        </mxCell>
        <mxCell id="g3XapY0zzhMqb0ZphnkQ-9" value="Code Repository" style="rounded=0;whiteSpace=wrap;html=1;fontColor=#999999;strokeColor=#999999;" vertex="1" parent="1">
          <mxGeometry x="360" y="120" width="80" height="40" as="geometry" />
        </mxCell>
        <mxCell id="g3XapY0zzhMqb0ZphnkQ-11" value="Project&lt;br&gt;Secure&lt;br&gt;KeyStore" style="rounded=0;whiteSpace=wrap;html=1;fontColor=#999999;strokeColor=#999999;" vertex="1" parent="1">
          <mxGeometry x="360" y="360" width="80" height="40" as="geometry" />
        </mxCell>
        <mxCell id="g3XapY0zzhMqb0ZphnkQ-13" value="Project ALM Wiki" style="rounded=0;whiteSpace=wrap;html=1;fontColor=#999999;strokeColor=#999999;" vertex="1" parent="1">
          <mxGeometry x="600" y="240" width="80" height="40" as="geometry" />
        </mxCell>
        <mxCell id="g3XapY0zzhMqb0ZphnkQ-22" style="edgeStyle=orthogonalEdgeStyle;rounded=0;orthogonalLoop=1;jettySize=auto;html=1;entryX=0;entryY=0.5;entryDx=0;entryDy=0;endArrow=block;endFill=0;fontColor=#999999;dashed=1;" edge="1" parent="1" source="g3XapY0zzhMqb0ZphnkQ-15" target="g3XapY0zzhMqb0ZphnkQ-2">
          <mxGeometry relative="1" as="geometry" />
        </mxCell>
        <mxCell id="g3XapY0zzhMqb0ZphnkQ-15" value="BT" style="rounded=0;whiteSpace=wrap;html=1;strokeColor=#999999;fontColor=#999999;dashed=1;" vertex="1" parent="1">
          <mxGeometry x="80" y="120" width="80" height="20" as="geometry" />
        </mxCell>
        <mxCell id="g3XapY0zzhMqb0ZphnkQ-23" style="edgeStyle=orthogonalEdgeStyle;rounded=0;orthogonalLoop=1;jettySize=auto;html=1;entryX=0;entryY=0.5;entryDx=0;entryDy=0;endArrow=block;endFill=0;fontColor=#999999;dashed=1;" edge="1" parent="1" source="g3XapY0zzhMqb0ZphnkQ-16" target="g3XapY0zzhMqb0ZphnkQ-2">
          <mxGeometry relative="1" as="geometry" />
        </mxCell>
        <mxCell id="g3XapY0zzhMqb0ZphnkQ-16" value="ST" style="rounded=0;whiteSpace=wrap;html=1;strokeColor=#999999;fontColor=#999999;dashed=1;" vertex="1" parent="1">
          <mxGeometry x="80" y="180" width="80" height="20" as="geometry" />
        </mxCell>
        <mxCell id="g3XapY0zzhMqb0ZphnkQ-24" style="edgeStyle=orthogonalEdgeStyle;rounded=0;orthogonalLoop=1;jettySize=auto;html=1;entryX=0;entryY=0.5;entryDx=0;entryDy=0;endArrow=block;endFill=0;fontColor=#999999;dashed=1;" edge="1" parent="1" source="g3XapY0zzhMqb0ZphnkQ-17" target="g3XapY0zzhMqb0ZphnkQ-2">
          <mxGeometry relative="1" as="geometry" />
        </mxCell>
        <mxCell id="g3XapY0zzhMqb0ZphnkQ-33" value="etc." style="edgeStyle=orthogonalEdgeStyle;rounded=0;orthogonalLoop=1;jettySize=auto;html=1;entryX=0.5;entryY=0;entryDx=0;entryDy=0;dashed=1;fontColor=#999999;endArrow=none;endFill=0;" edge="1" parent="1" source="g3XapY0zzhMqb0ZphnkQ-17" target="g3XapY0zzhMqb0ZphnkQ-30">
          <mxGeometry relative="1" as="geometry" />
        </mxCell>
        <mxCell id="g3XapY0zzhMqb0ZphnkQ-17" value="UT" style="rounded=0;whiteSpace=wrap;html=1;strokeColor=#999999;fontColor=#999999;dashed=1;" vertex="1" parent="1">
          <mxGeometry x="80" y="210" width="80" height="20" as="geometry" />
        </mxCell>
        <mxCell id="g3XapY0zzhMqb0ZphnkQ-25" style="edgeStyle=orthogonalEdgeStyle;rounded=0;orthogonalLoop=1;jettySize=auto;html=1;entryX=0;entryY=0.5;entryDx=0;entryDy=0;endArrow=block;endFill=0;fontColor=#999999;dashed=1;" edge="1" parent="1" source="g3XapY0zzhMqb0ZphnkQ-18" target="g3XapY0zzhMqb0ZphnkQ-2">
          <mxGeometry relative="1" as="geometry" />
        </mxCell>
        <mxCell id="g3XapY0zzhMqb0ZphnkQ-18" value="PP" style="rounded=0;whiteSpace=wrap;html=1;strokeColor=#999999;fontColor=#999999;dashed=1;" vertex="1" parent="1">
          <mxGeometry x="80" y="350" width="80" height="20" as="geometry" />
        </mxCell>
        <mxCell id="g3XapY0zzhMqb0ZphnkQ-26" style="edgeStyle=orthogonalEdgeStyle;rounded=0;orthogonalLoop=1;jettySize=auto;html=1;entryX=0;entryY=0.5;entryDx=0;entryDy=0;endArrow=block;endFill=0;fontColor=#999999;dashed=1;" edge="1" parent="1" source="g3XapY0zzhMqb0ZphnkQ-19" target="g3XapY0zzhMqb0ZphnkQ-2">
          <mxGeometry relative="1" as="geometry" />
        </mxCell>
        <mxCell id="g3XapY0zzhMqb0ZphnkQ-19" value="PROD" style="rounded=0;whiteSpace=wrap;html=1;strokeColor=#999999;fontColor=#999999;dashed=1;" vertex="1" parent="1">
          <mxGeometry x="80" y="380" width="80" height="20" as="geometry" />
        </mxCell>
        <mxCell id="g3XapY0zzhMqb0ZphnkQ-28" value="DT" style="rounded=0;whiteSpace=wrap;html=1;strokeColor=#999999;fontColor=#999999;dashed=1;" vertex="1" parent="1">
          <mxGeometry x="80" y="150" width="80" height="20" as="geometry" />
        </mxCell>
        <mxCell id="g3XapY0zzhMqb0ZphnkQ-34" value="etc." style="edgeStyle=orthogonalEdgeStyle;rounded=0;orthogonalLoop=1;jettySize=auto;html=1;entryX=0.5;entryY=0;entryDx=0;entryDy=0;dashed=1;fontColor=#999999;endArrow=none;endFill=0;" edge="1" parent="1" source="g3XapY0zzhMqb0ZphnkQ-29" target="g3XapY0zzhMqb0ZphnkQ-18">
          <mxGeometry relative="1" as="geometry" />
        </mxCell>
        <mxCell id="g3XapY0zzhMqb0ZphnkQ-29" value="IT" style="rounded=0;whiteSpace=wrap;html=1;strokeColor=#999999;fontColor=#999999;dashed=1;" vertex="1" parent="1">
          <mxGeometry x="80" y="300" width="80" height="20" as="geometry" />
        </mxCell>
        <mxCell id="g3XapY0zzhMqb0ZphnkQ-30" value="TR" style="rounded=0;whiteSpace=wrap;html=1;strokeColor=#999999;fontColor=#999999;dashed=1;" vertex="1" parent="1">
          <mxGeometry x="80" y="260" width="80" height="20" as="geometry" />
        </mxCell>
      </root>
    </mxGraphModel>
  </diagram>
</mxfile>
